<svg xmlns="http://www.w3.org/2000/svg" width="30" height="30" viewBox="0 0 30 30"><defs><style>.a{fill:none;}.b,.c{fill:#26a69a;}.b{opacity:0.3;}</style></defs><path class="a" d="M0,0H30V30H0Z"/><path class="b" d="M14,4A10,10,0,1,0,24,14,10.013,10.013,0,0,0,14,4ZM11.5,20.25l-5-5,1.763-1.762L11.5,16.712l8.237-8.238L21.5,10.25Z" transform="translate(1 1)"/><path class="c" d="M14.5,2A12.5,12.5,0,1,0,27,14.5,12.5,12.5,0,0,0,14.5,2Zm0,22.5a10,10,0,1,1,10-10A10.013,10.013,0,0,1,14.5,24.5ZM20.238,8.975,12,17.213,8.762,13.987,7,15.75l5,5,10-10Z" transform="translate(0.5 0.5)"/></svg>