<svg xmlns="http://www.w3.org/2000/svg" width="30.51" height="30.51" viewBox="0 0 30.51 30.51"><defs><style>.a{fill:none;}.b,.c{fill:#26a69a;}.b{opacity:0.3;}</style></defs><path class="a" d="M0,0H30.51V30.51H0Z"/><path class="b" d="M5,22.8H22.8V5H5ZM8.064,13.39l3.28,3.28,8.377-8.377,1.792,1.792-10.17,10.17L6.271,15.183Z" transform="translate(1.356 1.356)"/><path class="c" d="M23.34,3H5.542A2.55,2.55,0,0,0,3,5.542v17.8a2.55,2.55,0,0,0,2.542,2.542h17.8a2.55,2.55,0,0,0,2.542-2.542V5.542A2.55,2.55,0,0,0,23.34,3Zm0,20.34H5.542V5.542h17.8ZM22.056,10.627,20.263,8.822,11.886,17.2l-3.28-3.267L6.8,15.725,11.886,20.8Z" transform="translate(0.814 0.814)"/></svg>