<svg xmlns="http://www.w3.org/2000/svg" width="36" height="36" viewBox="0 0 36 36"><defs><style>.a{fill:none;}.b,.c{fill:#26a69a;}.b{opacity:0.3;}</style></defs><path class="a" d="M0,0H36V36H0Z"/><path class="b" d="M16,4A12,12,0,1,0,28,16,12,12,0,0,0,16,4Zm6.375,18.225L14.5,17.5v-9h2.25v7.875L23.5,20.38Z" transform="translate(2 2)"/><path class="c" d="M16.985,2A15,15,0,1,0,32,17,14.993,14.993,0,0,0,16.985,2ZM17,29A12,12,0,1,1,29,17,12,12,0,0,1,17,29Zm.75-19.5H15.5v9l7.875,4.725L24.5,21.38l-6.75-4.005Z" transform="translate(1 1)"/></svg>